# xmcd
#
# Track frame offsets:
#	150
#	11602
#	20402
#	31636
#	42206
#	54063
#	65168
#	73711
#	82357
#	91540
#	102580
#	112376
#	122820
#	135758
#	148644
#	160899
#	169652
#	180639
#	194027
#	202333
#	215862
#	228406
#	244304
#	253226
#	262843
#	275865
#	286174
#	299142
#	311504
#
# Disc length: 4307 seconds
#
# Revision: 0
# Processed by: cddbd v1.4PL0 Copyright (c) Steve Scherf et al.
# Submitted via: MusicWizard 6.0.0
#
DISCID=c510d11d
DTITLE=Johnny Cash - Rare And Unreleased
DYEAR=1900
DGENRE=Country
TTITLE0=Come Along And Ride This Train
TTITLE1=Pick A Bale Of Cotton
TTITLE2=The Shifting Whispering Ssand (& Lorne Green)
TTITLE3=Cotton Pickin' Hands
TTITLE4=Hammers And Nails (With The Statler Brothers)
TTITLE5=Come Along And Ride This Train 2
TTITLE6=The Fable Of Willie Brown
TTITLE7=Johnny Yuma Theme
TTITLE8=Five Minutes To Live
TTITLE9=Lovin' Locomotive Man
TTITLE10=Five Minutes To Live 2
TTITLE11=On The Line
TTITLE12=Forty Shades Of Green
TTITLE13=Folsom Prison Blues
TTITLE14=I Walk The Line
TTITLE15=Hey Porter
TTITLE16=I Forgot More Than You'll Ever Know About Her
TTITLE17=There's A Mother Always Waiting
TTITLE18=The Losing Kind
TTITLE19=Delia's Gone
TTITLE20=I'll Be All Smiles Tonight
TTITLE21=Hardin Wouldn't Run [1991]
TTITLE22=Sing It Pretty, Sue
TTITLE23=So Doggone Lonesome
TTITLE24=Johnny Reb
TTITLE25=Delia's Gone
TTITLE26=I Walk The Line [Take 9]
TTITLE27=The Girl In Saskatoon [Take 1]
TTITLE28=The Girl In Saskatoon [Take 9]
EXTD=From the Bear Family Box "The Man in Black"
EXTT0=
EXTT1=
EXTT2=
EXTT3=
EXTT4=
EXTT5=
EXTT6=
EXTT7=
EXTT8=
EXTT9=
EXTT10=
EXTT11=
EXTT12=
EXTT13=
EXTT14=
EXTT15=
EXTT16=
EXTT17=
EXTT18=
EXTT19=
EXTT20=
EXTT21=
EXTT22=
EXTT23=
EXTT24=
EXTT25=
EXTT26=
EXTT27=
EXTT28=
PLAYORDER=
